<?xml version="1.0" encoding="UTF-8"?>
<svg id="_レイヤー_1" data-name="レイヤー 1" xmlns="http://www.w3.org/2000/svg" viewBox="0 0 100 100">
  <defs>
    <style>
      .cls-1 {
        fill: #fff;
      }

      .cls-2 {
        fill: #0277bd;
      }

      .cls-3 {
        fill: #039be5;
      }

      .cls-4 {
        fill: #eee;
      }
    </style>
  </defs>
  <path class="cls-2" d="m90,5.29H10l7.06,80,32.94,9.41,32.94-9.41,7.06-80Z"/>
  <path class="cls-3" d="m50,12.35v75.06l26.35-7.53,5.88-67.53h-32.24Z"/>
  <g>
    <path class="cls-1" d="m72.38,22.95h-22.37v9.83h12.05l-.74,9.83h-11.31v9.83h10.82l-.74,11.06-10.08,3.44v10.33l19.42-6.39,1.72-28.27,1.23-19.67Z"/>
    <path class="cls-4" d="m50.01,22.95v9.83h-21.88l-.74-9.83h22.62Zm-11.31,19.67l.49,9.83h10.82v-9.83h-11.31Zm.98,14.75h-9.83l.74,13.52,19.42,6.39v-10.33l-10.08-3.44-.25-6.15Z"/>
  </g>
</svg>