<?xml version="1.0" encoding="UTF-8"?>
<svg id="_レイヤー_1" data-name="レイヤー 1" xmlns="http://www.w3.org/2000/svg" viewBox="0 0 100 100">
  <defs>
    <style>
      .cls-1 {
        fill: #fff;
      }

      .cls-2 {
        fill: #dd5816;
      }

      .cls-3 {
        fill: #faf9f8;
      }

      .cls-4 {
        fill: #f6731b;
      }
    </style>
  </defs>
  <path class="cls-2" d="m10,5.29h80l-9.41,80-30.59,9.41-32.94-9.41L10,5.29Z"/>
  <path class="cls-4" d="m82.07,12.35l-7.95,67.55-24.12,7.41V12.35h32.07Z"/>
  <g>
    <g>
      <polygon class="cls-3" points="50 42.21 37.4 42.21 36.59 32.42 50 32.42 50 22.95 26.09 22.95 28.63 51.84 50 51.84 50 42.21"/>
      <polygon class="cls-3" points="50 67.01 49.9 67.04 39.29 64.17 38.59 56.6 29.12 56.6 30.31 71.64 49.9 77.05 50 77.05 50 67.01"/>
    </g>
    <g>
      <polygon class="cls-1" points="50 22.95 50 32.42 73.05 32.42 73.91 22.95 50 22.95"/>
      <polygon class="cls-1" points="50 51.84 61.74 51.84 60.55 64.17 50 67.01 50 77.05 50.11 77.05 50.11 76.99 69.53 71.64 72.24 42.21 50 42.21 50 51.84"/>
    </g>
  </g>
</svg>